<svg width="669" height="505" viewBox="0 0 669 505" fill="none" xmlns="http://www.w3.org/2000/svg">
<rect width="669" height="505" fill="#D9E5F8"/>
<rect x="40" y="37" width="377" height="24" fill="white"/>
<rect x="40" y="84" width="433" height="24" fill="white"/>
<rect x="40" y="131" width="467" height="24" fill="white"/>
<rect x="40" y="192" width="161" height="24" fill="white"/>
<rect x="40" y="239" width="335" height="24" fill="white"/>
<rect x="40" y="286" width="335" height="24" fill="white"/>
<rect x="40" y="348" width="395" height="24" fill="white"/>
<rect x="40" y="395" width="433" height="24" fill="white"/>
<rect x="40" y="442" width="335" height="24" fill="white"/>
<rect x="434" y="328" width="146" height="154" fill="#98ABEE"/>
<rect x="457" y="348" width="100" height="100" rx="6" fill="white"/>
<path fill-rule="evenodd" clip-rule="evenodd" d="M490.5 364.5C488.246 364.5 486.084 365.396 484.49 366.99C482.896 368.584 482 370.746 482 373V424C482 426.254 482.896 428.416 484.49 430.01C486.084 431.604 488.246 432.5 490.5 432.5H524.5C526.754 432.5 528.916 431.604 530.51 430.01C532.104 428.416 533 426.254 533 424V387.51C533 385.255 532.104 383.094 530.509 381.5L516 366.99C514.406 365.396 512.245 364.5 509.991 364.5H490.5ZM511.75 390C511.75 388.873 511.302 387.792 510.505 386.995C509.708 386.198 508.627 385.75 507.5 385.75C506.373 385.75 505.292 386.198 504.495 386.995C503.698 387.792 503.25 388.873 503.25 390V405.241L497.755 399.745C497.363 399.339 496.894 399.016 496.375 398.793C495.857 398.57 495.299 398.453 494.735 398.448C494.17 398.443 493.611 398.551 493.088 398.764C492.566 398.978 492.092 399.294 491.693 399.693C491.294 400.092 490.978 400.566 490.764 401.088C490.551 401.611 490.443 402.17 490.448 402.735C490.453 403.299 490.57 403.857 490.793 404.375C491.016 404.894 491.339 405.363 491.745 405.755L504.495 418.505C505.292 419.302 506.373 419.749 507.5 419.749C508.627 419.749 509.708 419.302 510.505 418.505L523.255 405.755C524.029 404.953 524.457 403.88 524.448 402.765C524.438 401.651 523.991 400.585 523.203 399.797C522.415 399.009 521.349 398.562 520.235 398.552C519.12 398.543 518.047 398.971 517.245 399.745L511.75 405.241V390Z" fill="#5E35B1"/>
<path d="M478.711 469.192C477.847 469.192 477.042 469.053 476.295 468.776C475.559 468.488 474.919 468.083 474.375 467.56C473.831 467.037 473.405 466.424 473.095 465.72C472.797 465.016 472.647 464.243 472.647 463.4C472.647 462.557 472.797 461.784 473.095 461.08C473.405 460.376 473.831 459.763 474.375 459.24C474.93 458.717 475.575 458.317 476.311 458.04C477.047 457.752 477.853 457.608 478.727 457.608C479.698 457.608 480.573 457.779 481.351 458.12C482.141 458.451 482.802 458.941 483.335 459.592L481.671 461.128C481.287 460.691 480.861 460.365 480.391 460.152C479.922 459.928 479.41 459.816 478.855 459.816C478.333 459.816 477.853 459.901 477.415 460.072C476.978 460.243 476.599 460.488 476.279 460.808C475.959 461.128 475.709 461.507 475.527 461.944C475.357 462.381 475.271 462.867 475.271 463.4C475.271 463.933 475.357 464.419 475.527 464.856C475.709 465.293 475.959 465.672 476.279 465.992C476.599 466.312 476.978 466.557 477.415 466.728C477.853 466.899 478.333 466.984 478.855 466.984C479.41 466.984 479.922 466.877 480.391 466.664C480.861 466.44 481.287 466.104 481.671 465.656L483.335 467.192C482.802 467.843 482.141 468.339 481.351 468.68C480.573 469.021 479.693 469.192 478.711 469.192ZM488.709 469.128C487.792 469.128 486.976 468.936 486.261 468.552C485.557 468.168 484.997 467.645 484.581 466.984C484.176 466.312 483.973 465.549 483.973 464.696C483.973 463.832 484.176 463.069 484.581 462.408C484.997 461.736 485.557 461.213 486.261 460.84C486.976 460.456 487.792 460.264 488.709 460.264C489.616 460.264 490.426 460.456 491.141 460.84C491.856 461.213 492.416 461.731 492.821 462.392C493.226 463.053 493.429 463.821 493.429 464.696C493.429 465.549 493.226 466.312 492.821 466.984C492.416 467.645 491.856 468.168 491.141 468.552C490.426 468.936 489.616 469.128 488.709 469.128ZM488.709 467.08C489.125 467.08 489.498 466.984 489.829 466.792C490.16 466.6 490.421 466.328 490.613 465.976C490.805 465.613 490.901 465.187 490.901 464.696C490.901 464.195 490.805 463.768 490.613 463.416C490.421 463.064 490.16 462.792 489.829 462.6C489.498 462.408 489.125 462.312 488.709 462.312C488.293 462.312 487.92 462.408 487.589 462.6C487.258 462.792 486.992 463.064 486.789 463.416C486.597 463.768 486.501 464.195 486.501 464.696C486.501 465.187 486.597 465.613 486.789 465.976C486.992 466.328 487.258 466.6 487.589 466.792C487.92 466.984 488.293 467.08 488.709 467.08ZM500.329 460.264C501.012 460.264 501.62 460.403 502.153 460.68C502.697 460.947 503.124 461.363 503.433 461.928C503.743 462.483 503.897 463.197 503.897 464.072V469H501.401V464.456C501.401 463.763 501.247 463.251 500.937 462.92C500.639 462.589 500.212 462.424 499.657 462.424C499.263 462.424 498.905 462.509 498.585 462.68C498.276 462.84 498.031 463.091 497.849 463.432C497.679 463.773 497.593 464.211 497.593 464.744V469H495.097V460.392H497.481V462.776L497.033 462.056C497.343 461.48 497.785 461.037 498.361 460.728C498.937 460.419 499.593 460.264 500.329 460.264ZM508.34 469L504.724 460.392H507.3L510.308 467.8H509.028L512.148 460.392H514.548L510.916 469H508.34ZM519.604 469.128C518.622 469.128 517.758 468.936 517.012 468.552C516.276 468.168 515.705 467.645 515.3 466.984C514.894 466.312 514.692 465.549 514.692 464.696C514.692 463.832 514.889 463.069 515.284 462.408C515.689 461.736 516.238 461.213 516.932 460.84C517.625 460.456 518.409 460.264 519.284 460.264C520.126 460.264 520.884 460.445 521.556 460.808C522.238 461.16 522.777 461.672 523.172 462.344C523.566 463.005 523.764 463.8 523.764 464.728C523.764 464.824 523.758 464.936 523.748 465.064C523.737 465.181 523.726 465.293 523.716 465.4H516.724V463.944H522.404L521.444 464.376C521.444 463.928 521.353 463.539 521.172 463.208C520.99 462.877 520.74 462.621 520.42 462.44C520.1 462.248 519.726 462.152 519.3 462.152C518.873 462.152 518.494 462.248 518.164 462.44C517.844 462.621 517.593 462.883 517.412 463.224C517.23 463.555 517.14 463.949 517.14 464.408V464.792C517.14 465.261 517.241 465.677 517.444 466.04C517.657 466.392 517.95 466.664 518.324 466.856C518.708 467.037 519.156 467.128 519.668 467.128C520.126 467.128 520.526 467.059 520.868 466.92C521.22 466.781 521.54 466.573 521.828 466.296L523.156 467.736C522.761 468.184 522.265 468.531 521.668 468.776C521.07 469.011 520.382 469.128 519.604 469.128ZM525.425 469V460.392H527.809V462.824L527.473 462.12C527.729 461.512 528.14 461.053 528.705 460.744C529.271 460.424 529.959 460.264 530.769 460.264V462.568C530.663 462.557 530.567 462.552 530.481 462.552C530.396 462.541 530.305 462.536 530.209 462.536C529.527 462.536 528.972 462.733 528.545 463.128C528.129 463.512 527.921 464.115 527.921 464.936V469H525.425ZM536.07 469.128C535.057 469.128 534.268 468.872 533.702 468.36C533.137 467.837 532.854 467.064 532.854 466.04V458.488H535.35V466.008C535.35 466.371 535.446 466.653 535.638 466.856C535.83 467.048 536.092 467.144 536.422 467.144C536.817 467.144 537.153 467.037 537.43 466.824L538.102 468.584C537.846 468.765 537.537 468.904 537.174 469C536.822 469.085 536.454 469.128 536.07 469.128ZM531.526 462.504V460.584H537.494V462.504H531.526ZM539.68 465.112L539.184 457.8H542.16L541.664 465.112H539.68ZM540.672 469.128C540.224 469.128 539.856 468.984 539.568 468.696C539.28 468.408 539.136 468.067 539.136 467.672C539.136 467.267 539.28 466.931 539.568 466.664C539.856 466.387 540.224 466.248 540.672 466.248C541.13 466.248 541.498 466.387 541.776 466.664C542.064 466.931 542.208 467.267 542.208 467.672C542.208 468.067 542.064 468.408 541.776 468.696C541.498 468.984 541.13 469.128 540.672 469.128Z" fill="white"/>
<rect x="229" y="174" width="146" height="154" fill="#98ABEE"/>
<rect x="252" y="194" width="100" height="100" rx="6" fill="white"/>
<path d="M249.992 315.192C248.402 315.192 247.16 314.749 246.264 313.864C245.368 312.979 244.92 311.715 244.92 310.072V303.8H247.512V309.976C247.512 311.043 247.73 311.811 248.168 312.28C248.605 312.749 249.218 312.984 250.008 312.984C250.797 312.984 251.41 312.749 251.848 312.28C252.285 311.811 252.503 311.043 252.503 309.976V303.8H255.064V310.072C255.064 311.715 254.616 312.979 253.72 313.864C252.824 314.749 251.581 315.192 249.992 315.192ZM262.537 315.128C261.812 315.128 261.177 314.968 260.633 314.648C260.089 314.328 259.662 313.843 259.353 313.192C259.054 312.531 258.905 311.699 258.905 310.696C258.905 309.683 259.049 308.851 259.337 308.2C259.625 307.549 260.041 307.064 260.585 306.744C261.129 306.424 261.78 306.264 262.537 306.264C263.348 306.264 264.073 306.451 264.713 306.824C265.364 307.187 265.876 307.699 266.249 308.36C266.633 309.021 266.825 309.8 266.825 310.696C266.825 311.603 266.633 312.387 266.249 313.048C265.876 313.709 265.364 314.221 264.713 314.584C264.073 314.947 263.348 315.128 262.537 315.128ZM257.449 318.104V306.392H259.833V308.152L259.785 310.712L259.945 313.256V318.104H257.449ZM262.105 313.08C262.521 313.08 262.889 312.984 263.209 312.792C263.54 312.6 263.801 312.328 263.993 311.976C264.196 311.613 264.297 311.187 264.297 310.696C264.297 310.195 264.196 309.768 263.993 309.416C263.801 309.064 263.54 308.792 263.209 308.6C262.889 308.408 262.521 308.312 262.105 308.312C261.689 308.312 261.316 308.408 260.985 308.6C260.654 308.792 260.393 309.064 260.201 309.416C260.009 309.768 259.913 310.195 259.913 310.696C259.913 311.187 260.009 311.613 260.201 311.976C260.393 312.328 260.654 312.6 260.985 312.792C261.316 312.984 261.689 313.08 262.105 313.08ZM268.496 315V303.128H270.992V315H268.496ZM277.404 315.128C276.487 315.128 275.671 314.936 274.956 314.552C274.252 314.168 273.692 313.645 273.276 312.984C272.871 312.312 272.668 311.549 272.668 310.696C272.668 309.832 272.871 309.069 273.276 308.408C273.692 307.736 274.252 307.213 274.956 306.84C275.671 306.456 276.487 306.264 277.404 306.264C278.311 306.264 279.122 306.456 279.836 306.84C280.551 307.213 281.111 307.731 281.516 308.392C281.922 309.053 282.124 309.821 282.124 310.696C282.124 311.549 281.922 312.312 281.516 312.984C281.111 313.645 280.551 314.168 279.836 314.552C279.122 314.936 278.311 315.128 277.404 315.128ZM277.404 313.08C277.82 313.08 278.194 312.984 278.524 312.792C278.855 312.6 279.116 312.328 279.308 311.976C279.5 311.613 279.596 311.187 279.596 310.696C279.596 310.195 279.5 309.768 279.308 309.416C279.116 309.064 278.855 308.792 278.524 308.6C278.194 308.408 277.82 308.312 277.404 308.312C276.988 308.312 276.615 308.408 276.284 308.6C275.954 308.792 275.687 309.064 275.484 309.416C275.292 309.768 275.196 310.195 275.196 310.696C275.196 311.187 275.292 311.613 275.484 311.976C275.687 312.328 275.954 312.6 276.284 312.792C276.615 312.984 276.988 313.08 277.404 313.08ZM288.932 315V313.32L288.772 312.952V309.944C288.772 309.411 288.607 308.995 288.276 308.696C287.956 308.397 287.46 308.248 286.788 308.248C286.329 308.248 285.876 308.323 285.428 308.472C284.991 308.611 284.617 308.803 284.308 309.048L283.412 307.304C283.881 306.973 284.447 306.717 285.108 306.536C285.769 306.355 286.441 306.264 287.124 306.264C288.436 306.264 289.455 306.573 290.18 307.192C290.905 307.811 291.268 308.776 291.268 310.088V315H288.932ZM286.308 315.128C285.636 315.128 285.06 315.016 284.58 314.792C284.1 314.557 283.732 314.243 283.476 313.848C283.22 313.453 283.092 313.011 283.092 312.52C283.092 312.008 283.215 311.56 283.46 311.176C283.716 310.792 284.116 310.493 284.66 310.28C285.204 310.056 285.913 309.944 286.788 309.944H289.076V311.4H287.06C286.473 311.4 286.068 311.496 285.844 311.688C285.631 311.88 285.524 312.12 285.524 312.408C285.524 312.728 285.647 312.984 285.892 313.176C286.148 313.357 286.495 313.448 286.932 313.448C287.348 313.448 287.721 313.352 288.052 313.16C288.383 312.957 288.623 312.664 288.772 312.28L289.156 313.432C288.975 313.987 288.644 314.408 288.164 314.696C287.684 314.984 287.065 315.128 286.308 315.128ZM297.286 315.128C296.475 315.128 295.744 314.947 295.094 314.584C294.443 314.211 293.926 313.693 293.542 313.032C293.168 312.371 292.982 311.592 292.982 310.696C292.982 309.789 293.168 309.005 293.542 308.344C293.926 307.683 294.443 307.171 295.094 306.808C295.744 306.445 296.475 306.264 297.286 306.264C298.011 306.264 298.646 306.424 299.19 306.744C299.734 307.064 300.155 307.549 300.454 308.2C300.752 308.851 300.902 309.683 300.902 310.696C300.902 311.699 300.758 312.531 300.47 313.192C300.182 313.843 299.766 314.328 299.222 314.648C298.688 314.968 298.043 315.128 297.286 315.128ZM297.718 313.08C298.123 313.08 298.491 312.984 298.822 312.792C299.152 312.6 299.414 312.328 299.606 311.976C299.808 311.613 299.91 311.187 299.91 310.696C299.91 310.195 299.808 309.768 299.606 309.416C299.414 309.064 299.152 308.792 298.822 308.6C298.491 308.408 298.123 308.312 297.718 308.312C297.302 308.312 296.928 308.408 296.598 308.6C296.267 308.792 296 309.064 295.798 309.416C295.606 309.768 295.51 310.195 295.51 310.696C295.51 311.187 295.606 311.613 295.798 311.976C296 312.328 296.267 312.6 296.598 312.792C296.928 312.984 297.302 313.08 297.718 313.08ZM299.974 315V313.24L300.022 310.68L299.862 308.136V303.128H302.358V315H299.974ZM309.375 315V303.8H311.967V315H309.375ZM325.473 306.264C326.156 306.264 326.758 306.403 327.281 306.68C327.814 306.947 328.23 307.363 328.529 307.928C328.838 308.483 328.993 309.197 328.993 310.072V315H326.497V310.456C326.497 309.763 326.353 309.251 326.065 308.92C325.777 308.589 325.372 308.424 324.849 308.424C324.486 308.424 324.161 308.509 323.873 308.68C323.585 308.84 323.361 309.085 323.201 309.416C323.041 309.747 322.961 310.168 322.961 310.68V315H320.465V310.456C320.465 309.763 320.321 309.251 320.033 308.92C319.756 308.589 319.356 308.424 318.833 308.424C318.47 308.424 318.145 308.509 317.857 308.68C317.569 308.84 317.345 309.085 317.185 309.416C317.025 309.747 316.945 310.168 316.945 310.68V315H314.449V306.392H316.833V308.744L316.385 308.056C316.684 307.469 317.105 307.027 317.649 306.728C318.204 306.419 318.833 306.264 319.537 306.264C320.326 306.264 321.014 306.467 321.601 306.872C322.198 307.267 322.593 307.875 322.785 308.696L321.905 308.456C322.193 307.784 322.652 307.251 323.281 306.856C323.921 306.461 324.652 306.264 325.473 306.264ZM336.51 315V313.32L336.35 312.952V309.944C336.35 309.411 336.185 308.995 335.854 308.696C335.534 308.397 335.038 308.248 334.366 308.248C333.907 308.248 333.454 308.323 333.006 308.472C332.569 308.611 332.195 308.803 331.886 309.048L330.99 307.304C331.459 306.973 332.025 306.717 332.686 306.536C333.347 306.355 334.019 306.264 334.702 306.264C336.014 306.264 337.033 306.573 337.758 307.192C338.483 307.811 338.846 308.776 338.846 310.088V315H336.51ZM333.886 315.128C333.214 315.128 332.638 315.016 332.158 314.792C331.678 314.557 331.31 314.243 331.054 313.848C330.798 313.453 330.67 313.011 330.67 312.52C330.67 312.008 330.793 311.56 331.038 311.176C331.294 310.792 331.694 310.493 332.238 310.28C332.782 310.056 333.491 309.944 334.366 309.944H336.654V311.4H334.638C334.051 311.4 333.646 311.496 333.422 311.688C333.209 311.88 333.102 312.12 333.102 312.408C333.102 312.728 333.225 312.984 333.47 313.176C333.726 313.357 334.073 313.448 334.51 313.448C334.926 313.448 335.299 313.352 335.63 313.16C335.961 312.957 336.201 312.664 336.35 312.28L336.734 313.432C336.553 313.987 336.222 314.408 335.742 314.696C335.262 314.984 334.643 315.128 333.886 315.128ZM345.216 318.232C344.405 318.232 343.621 318.131 342.864 317.928C342.117 317.736 341.493 317.443 340.992 317.048L341.984 315.256C342.346 315.555 342.805 315.789 343.36 315.96C343.925 316.141 344.48 316.232 345.024 316.232C345.909 316.232 346.549 316.035 346.944 315.64C347.349 315.245 347.552 314.659 347.552 313.88V312.584L347.712 310.424L347.68 308.248V306.392H350.048V313.56C350.048 315.16 349.632 316.339 348.8 317.096C347.968 317.853 346.773 318.232 345.216 318.232ZM344.832 314.584C344.032 314.584 343.306 314.413 342.656 314.072C342.016 313.72 341.498 313.235 341.104 312.616C340.72 311.987 340.528 311.256 340.528 310.424C340.528 309.581 340.72 308.851 341.104 308.232C341.498 307.603 342.016 307.117 342.656 306.776C343.306 306.435 344.032 306.264 344.832 306.264C345.557 306.264 346.197 306.413 346.752 306.712C347.306 307 347.738 307.453 348.048 308.072C348.357 308.68 348.512 309.464 348.512 310.424C348.512 311.373 348.357 312.157 348.048 312.776C347.738 313.384 347.306 313.837 346.752 314.136C346.197 314.435 345.557 314.584 344.832 314.584ZM345.328 312.536C345.765 312.536 346.154 312.451 346.496 312.28C346.837 312.099 347.104 311.848 347.296 311.528C347.488 311.208 347.584 310.84 347.584 310.424C347.584 309.997 347.488 309.629 347.296 309.32C347.104 309 346.837 308.755 346.496 308.584C346.154 308.403 345.765 308.312 345.328 308.312C344.89 308.312 344.501 308.403 344.16 308.584C343.818 308.755 343.546 309 343.344 309.32C343.152 309.629 343.056 309.997 343.056 310.424C343.056 310.84 343.152 311.208 343.344 311.528C343.546 311.848 343.818 312.099 344.16 312.28C344.501 312.451 344.89 312.536 345.328 312.536ZM356.643 315.128C355.661 315.128 354.797 314.936 354.051 314.552C353.315 314.168 352.744 313.645 352.339 312.984C351.933 312.312 351.731 311.549 351.731 310.696C351.731 309.832 351.928 309.069 352.323 308.408C352.728 307.736 353.277 307.213 353.971 306.84C354.664 306.456 355.448 306.264 356.323 306.264C357.165 306.264 357.923 306.445 358.595 306.808C359.277 307.16 359.816 307.672 360.211 308.344C360.605 309.005 360.803 309.8 360.803 310.728C360.803 310.824 360.797 310.936 360.787 311.064C360.776 311.181 360.765 311.293 360.755 311.4H353.763V309.944H359.443L358.483 310.376C358.483 309.928 358.392 309.539 358.211 309.208C358.029 308.877 357.779 308.621 357.459 308.44C357.139 308.248 356.765 308.152 356.339 308.152C355.912 308.152 355.533 308.248 355.203 308.44C354.883 308.621 354.632 308.883 354.451 309.224C354.269 309.555 354.179 309.949 354.179 310.408V310.792C354.179 311.261 354.28 311.677 354.483 312.04C354.696 312.392 354.989 312.664 355.363 312.856C355.747 313.037 356.195 313.128 356.707 313.128C357.165 313.128 357.565 313.059 357.907 312.92C358.259 312.781 358.579 312.573 358.867 312.296L360.195 313.736C359.8 314.184 359.304 314.531 358.707 314.776C358.109 315.011 357.421 315.128 356.643 315.128Z" fill="white"/>
<path d="M331.5 275.312H273.5C269.512 275.312 266.25 272.05 266.25 268.062V220.938C266.25 216.95 269.512 213.688 273.5 213.688H331.5C335.488 213.688 338.75 216.95 338.75 220.938V268.062C338.75 272.05 335.488 275.312 331.5 275.312Z" fill="#5E35B1"/>
<path d="M322.438 235.438C325.441 235.438 327.875 233.003 327.875 230C327.875 226.997 325.441 224.562 322.438 224.562C319.434 224.562 317 226.997 317 230C317 233.003 319.434 235.438 322.438 235.438Z" fill="#D9E5F8"/>
<path d="M295.25 230L275.312 259H315.188L295.25 230Z" fill="#98ABEE"/>
<path d="M315.188 240.875L300.688 259H329.688L315.188 240.875Z" fill="#D9E5F8"/>
<path d="M327.875 288C337.885 288 346 279.885 346 269.875C346 259.865 337.885 251.75 327.875 251.75C317.865 251.75 309.75 259.865 309.75 269.875C309.75 279.885 317.865 288 327.875 288Z" fill="#1D24CA"/>
<path d="M324.25 259H331.5V280.75H324.25V259Z" fill="white"/>
<path d="M317 266.25H338.75V273.5H317V266.25Z" fill="white"/>
<rect x="473" y="19" width="146" height="154" fill="#98ABEE"/>
<rect x="496" y="39" width="100" height="100" rx="6" fill="white"/>
<path d="M563.619 68.923H529.554L535.433 60.1042C536.125 59.0667 537.163 58.548 538.373 58.548H554.973C556.183 58.548 557.221 59.0667 557.913 60.1042L563.619 68.923Z" fill="#512DA8"/>
<path d="M529.208 67.0209H518.833V63.9084C518.833 62.698 519.698 61.8334 520.908 61.8334H527.133C528.344 61.8334 529.208 62.698 529.208 63.9084V67.0209Z" fill="#8667C4"/>
<path d="M574.167 120.625H518.833C515.029 120.625 511.917 117.512 511.917 113.708V72.2083C511.917 68.4041 515.029 65.2916 518.833 65.2916H574.167C577.971 65.2916 581.083 68.4041 581.083 72.2083V113.708C581.083 117.512 577.971 120.625 574.167 120.625Z" fill="#5E35B1"/>
<path d="M546.5 113.708C557.96 113.708 567.25 104.418 567.25 92.9584C567.25 81.4985 557.96 72.2084 546.5 72.2084C535.04 72.2084 525.75 81.4985 525.75 92.9584C525.75 104.418 535.04 113.708 546.5 113.708Z" fill="#512DA8"/>
<path d="M546.5 108.521C555.095 108.521 562.062 101.553 562.062 92.9584C562.062 84.3634 555.095 77.3959 546.5 77.3959C537.905 77.3959 530.938 84.3634 530.938 92.9584C530.938 101.553 537.905 108.521 546.5 108.521Z" fill="#B388FF"/>
<path d="M555.146 87.7708C553.071 85.35 549.958 83.9667 546.846 83.9667C543.733 83.9667 540.621 85.35 538.546 87.7708C537.681 88.6354 537.854 90.0188 538.719 90.8833C539.583 91.7479 540.967 91.575 541.831 90.7104C544.425 87.7708 549.267 87.7708 551.86 90.7104C552.379 91.2292 552.898 91.4021 553.59 91.4021C554.108 91.4021 554.627 91.2292 555.146 90.8833C555.838 90.1917 556.01 88.6354 555.146 87.7708Z" fill="#C7A7FF"/>
<path d="M524.021 73.9375C525.931 73.9375 527.479 72.7762 527.479 71.3438C527.479 69.9113 525.931 68.75 524.021 68.75C522.111 68.75 520.562 69.9113 520.562 71.3438C520.562 72.7762 522.111 73.9375 524.021 73.9375Z" fill="#8667C4"/>
<path d="M495.125 160V150.912H491.541V148.8H501.301V150.912H497.717V160H495.125ZM507.362 160V158.32L507.202 157.952V154.944C507.202 154.411 507.036 153.995 506.706 153.696C506.386 153.397 505.89 153.248 505.218 153.248C504.759 153.248 504.306 153.323 503.858 153.472C503.42 153.611 503.047 153.803 502.738 154.048L501.842 152.304C502.311 151.973 502.876 151.717 503.538 151.536C504.199 151.355 504.871 151.264 505.554 151.264C506.866 151.264 507.884 151.573 508.61 152.192C509.335 152.811 509.698 153.776 509.698 155.088V160H507.362ZM504.738 160.128C504.066 160.128 503.49 160.016 503.01 159.792C502.53 159.557 502.162 159.243 501.906 158.848C501.65 158.453 501.522 158.011 501.522 157.52C501.522 157.008 501.644 156.56 501.89 156.176C502.146 155.792 502.546 155.493 503.09 155.28C503.634 155.056 504.343 154.944 505.218 154.944H507.506V156.4H505.49C504.903 156.4 504.498 156.496 504.274 156.688C504.06 156.88 503.954 157.12 503.954 157.408C503.954 157.728 504.076 157.984 504.322 158.176C504.578 158.357 504.924 158.448 505.362 158.448C505.778 158.448 506.151 158.352 506.482 158.16C506.812 157.957 507.052 157.664 507.202 157.28L507.586 158.432C507.404 158.987 507.074 159.408 506.594 159.696C506.114 159.984 505.495 160.128 504.738 160.128ZM514.021 158.24L514.085 155.2L518.101 151.392H521.077L517.221 155.312L515.925 156.368L514.021 158.24ZM511.957 160V148.128H514.453V160H511.957ZM518.373 160L515.461 156.384L517.029 154.448L521.397 160H518.373ZM526.416 160.128C525.435 160.128 524.571 159.936 523.824 159.552C523.088 159.168 522.518 158.645 522.112 157.984C521.707 157.312 521.504 156.549 521.504 155.696C521.504 154.832 521.702 154.069 522.096 153.408C522.502 152.736 523.051 152.213 523.744 151.84C524.438 151.456 525.222 151.264 526.096 151.264C526.939 151.264 527.696 151.445 528.368 151.808C529.051 152.16 529.59 152.672 529.984 153.344C530.379 154.005 530.576 154.8 530.576 155.728C530.576 155.824 530.571 155.936 530.56 156.064C530.55 156.181 530.539 156.293 530.528 156.4H523.536V154.944H529.216L528.256 155.376C528.256 154.928 528.166 154.539 527.984 154.208C527.803 153.877 527.552 153.621 527.232 153.44C526.912 153.248 526.539 153.152 526.112 153.152C525.686 153.152 525.307 153.248 524.976 153.44C524.656 153.621 524.406 153.883 524.224 154.224C524.043 154.555 523.952 154.949 523.952 155.408V155.792C523.952 156.261 524.054 156.677 524.256 157.04C524.47 157.392 524.763 157.664 525.136 157.856C525.52 158.037 525.968 158.128 526.48 158.128C526.939 158.128 527.339 158.059 527.68 157.92C528.032 157.781 528.352 157.573 528.64 157.296L529.968 158.736C529.574 159.184 529.078 159.531 528.48 159.776C527.883 160.011 527.195 160.128 526.416 160.128ZM542.049 160V158.32L541.889 157.952V154.944C541.889 154.411 541.724 153.995 541.393 153.696C541.073 153.397 540.577 153.248 539.905 153.248C539.447 153.248 538.993 153.323 538.545 153.472C538.108 153.611 537.735 153.803 537.425 154.048L536.529 152.304C536.999 151.973 537.564 151.717 538.225 151.536C538.887 151.355 539.559 151.264 540.241 151.264C541.553 151.264 542.572 151.573 543.297 152.192C544.023 152.811 544.385 153.776 544.385 155.088V160H542.049ZM539.425 160.128C538.753 160.128 538.177 160.016 537.697 159.792C537.217 159.557 536.849 159.243 536.593 158.848C536.337 158.453 536.209 158.011 536.209 157.52C536.209 157.008 536.332 156.56 536.577 156.176C536.833 155.792 537.233 155.493 537.777 155.28C538.321 155.056 539.031 154.944 539.905 154.944H542.193V156.4H540.177C539.591 156.4 539.185 156.496 538.961 156.688C538.748 156.88 538.641 157.12 538.641 157.408C538.641 157.728 538.764 157.984 539.009 158.176C539.265 158.357 539.612 158.448 540.049 158.448C540.465 158.448 540.839 158.352 541.169 158.16C541.5 157.957 541.74 157.664 541.889 157.28L542.273 158.432C542.092 158.987 541.761 159.408 541.281 159.696C540.801 159.984 540.183 160.128 539.425 160.128ZM551.351 160V148.8H556.199C557.202 148.8 558.066 148.965 558.791 149.296C559.517 149.616 560.077 150.08 560.471 150.688C560.866 151.296 561.063 152.021 561.063 152.864C561.063 153.696 560.866 154.416 560.471 155.024C560.077 155.632 559.517 156.101 558.791 156.432C558.066 156.752 557.202 156.912 556.199 156.912H552.791L553.943 155.744V160H551.351ZM553.943 156.032L552.791 154.8H556.055C556.855 154.8 557.453 154.629 557.847 154.288C558.242 153.947 558.439 153.472 558.439 152.864C558.439 152.245 558.242 151.765 557.847 151.424C557.453 151.083 556.855 150.912 556.055 150.912H552.791L553.943 149.68V156.032ZM568.126 151.264C568.809 151.264 569.417 151.403 569.95 151.68C570.494 151.947 570.921 152.363 571.23 152.928C571.54 153.483 571.694 154.197 571.694 155.072V160H569.198V155.456C569.198 154.763 569.044 154.251 568.734 153.92C568.436 153.589 568.009 153.424 567.454 153.424C567.06 153.424 566.702 153.509 566.382 153.68C566.073 153.84 565.828 154.091 565.646 154.432C565.476 154.773 565.39 155.211 565.39 155.744V160H562.894V148.128H565.39V153.776L564.83 153.056C565.14 152.48 565.582 152.037 566.158 151.728C566.734 151.419 567.39 151.264 568.126 151.264ZM578.115 160.128C577.198 160.128 576.382 159.936 575.667 159.552C574.963 159.168 574.403 158.645 573.987 157.984C573.582 157.312 573.379 156.549 573.379 155.696C573.379 154.832 573.582 154.069 573.987 153.408C574.403 152.736 574.963 152.213 575.667 151.84C576.382 151.456 577.198 151.264 578.115 151.264C579.022 151.264 579.833 151.456 580.547 151.84C581.262 152.213 581.822 152.731 582.227 153.392C582.633 154.053 582.835 154.821 582.835 155.696C582.835 156.549 582.633 157.312 582.227 157.984C581.822 158.645 581.262 159.168 580.547 159.552C579.833 159.936 579.022 160.128 578.115 160.128ZM578.115 158.08C578.531 158.08 578.905 157.984 579.235 157.792C579.566 157.6 579.827 157.328 580.019 156.976C580.211 156.613 580.307 156.187 580.307 155.696C580.307 155.195 580.211 154.768 580.019 154.416C579.827 154.064 579.566 153.792 579.235 153.6C578.905 153.408 578.531 153.312 578.115 153.312C577.699 153.312 577.326 153.408 576.995 153.6C576.665 153.792 576.398 154.064 576.195 154.416C576.003 154.768 575.907 155.195 575.907 155.696C575.907 156.187 576.003 156.613 576.195 156.976C576.398 157.328 576.665 157.6 576.995 157.792C577.326 157.984 577.699 158.08 578.115 158.08ZM588.024 160.128C587.01 160.128 586.221 159.872 585.656 159.36C585.09 158.837 584.808 158.064 584.808 157.04V149.488H587.304V157.008C587.304 157.371 587.4 157.653 587.592 157.856C587.784 158.048 588.045 158.144 588.376 158.144C588.77 158.144 589.106 158.037 589.384 157.824L590.056 159.584C589.8 159.765 589.49 159.904 589.128 160C588.776 160.085 588.408 160.128 588.024 160.128ZM583.48 153.504V151.584H589.448V153.504H583.48ZM595.287 160.128C594.37 160.128 593.554 159.936 592.839 159.552C592.135 159.168 591.575 158.645 591.159 157.984C590.754 157.312 590.551 156.549 590.551 155.696C590.551 154.832 590.754 154.069 591.159 153.408C591.575 152.736 592.135 152.213 592.839 151.84C593.554 151.456 594.37 151.264 595.287 151.264C596.194 151.264 597.004 151.456 597.719 151.84C598.434 152.213 598.994 152.731 599.399 153.392C599.804 154.053 600.007 154.821 600.007 155.696C600.007 156.549 599.804 157.312 599.399 157.984C598.994 158.645 598.434 159.168 597.719 159.552C597.004 159.936 596.194 160.128 595.287 160.128ZM595.287 158.08C595.703 158.08 596.076 157.984 596.407 157.792C596.738 157.6 596.999 157.328 597.191 156.976C597.383 156.613 597.479 156.187 597.479 155.696C597.479 155.195 597.383 154.768 597.191 154.416C596.999 154.064 596.738 153.792 596.407 153.6C596.076 153.408 595.703 153.312 595.287 153.312C594.871 153.312 594.498 153.408 594.167 153.6C593.836 153.792 593.57 154.064 593.367 154.416C593.175 154.768 593.079 155.195 593.079 155.696C593.079 156.187 593.175 156.613 593.367 156.976C593.57 157.328 593.836 157.6 594.167 157.792C594.498 157.984 594.871 158.08 595.287 158.08Z" fill="white"/>
</svg>
