<svg width="413" height="60" viewBox="0 0 413 60" fill="none" xmlns="http://www.w3.org/2000/svg">
<path d="M13.457 46.758C19.949 53.25 28.387 55.195 32.535 55.594C33.754 55.734 34.434 54.984 34.527 54.211C34.621 53.391 34.105 52.5 32.934 52.336C29.184 51.82 21.426 50.133 15.801 44.438C6.61299 35.227 4.87899 21.305 12.379 13.805C18.473 7.73497 28.621 8.50797 36.098 12.539L38.535 10.172C29.441 4.71097 17.207 4.26597 10.035 11.461C1.50399 20.016 2.62899 35.93 13.457 46.758ZM47.817 13.547L49.691 11.672C50.581 10.782 50.629 9.46897 49.715 8.62497L49.105 8.06297C48.309 7.31297 47.066 7.33597 46.199 8.15597L44.348 10.055L47.817 13.547ZM25.059 36.257L46.105 15.234L42.613 11.766L21.59 32.766L19.645 37.242C19.457 37.734 19.949 38.227 20.465 38.062L25.059 36.257ZM21.989 39.75C29.652 47.414 41.98 50.438 48.871 43.57C54.496 37.922 53.769 27.89 47.746 19.266L45.356 21.656C50.136 28.734 51.074 36.68 46.527 41.226C40.997 46.758 31.855 44.133 25.574 38.203L21.989 39.75Z" fill="#1D24CA"/>
<path d="M92.92 16.08V44H87.32V32.12H75.36V44H69.76V16.08H75.36V27.56H87.32V16.08H92.92ZM96.9919 32.84C96.9919 30.6 97.4319 28.6133 98.3119 26.88C99.2185 25.1467 100.432 23.8133 101.952 22.88C103.499 21.9467 105.219 21.48 107.112 21.48C108.765 21.48 110.205 21.8133 111.432 22.48C112.685 23.1467 113.685 23.9867 114.432 25V21.84H120.072V44H114.432V40.76C113.712 41.8 112.712 42.6667 111.432 43.36C110.179 44.0267 108.725 44.36 107.072 44.36C105.205 44.36 103.499 43.88 101.952 42.92C100.432 41.96 99.2185 40.6133 98.3119 38.88C97.4319 37.12 96.9919 35.1067 96.9919 32.84ZM114.432 32.92C114.432 31.56 114.165 30.4 113.632 29.44C113.099 28.4533 112.379 27.7067 111.472 27.2C110.565 26.6667 109.592 26.4 108.552 26.4C107.512 26.4 106.552 26.6533 105.672 27.16C104.792 27.6667 104.072 28.4133 103.512 29.4C102.979 30.36 102.712 31.5067 102.712 32.84C102.712 34.1733 102.979 35.3467 103.512 36.36C104.072 37.3467 104.792 38.1067 105.672 38.64C106.579 39.1733 107.539 39.44 108.552 39.44C109.592 39.44 110.565 39.1867 111.472 38.68C112.379 38.1467 113.099 37.4 113.632 36.44C114.165 35.4533 114.432 34.28 114.432 32.92ZM137.821 21.52C140.461 21.52 142.595 22.36 144.221 24.04C145.848 25.6933 146.661 28.0133 146.661 31V44H141.061V31.76C141.061 30 140.621 28.6533 139.741 27.72C138.861 26.76 137.661 26.28 136.141 26.28C134.595 26.28 133.368 26.76 132.461 27.72C131.581 28.6533 131.141 30 131.141 31.76V44H125.541V21.84H131.141V24.6C131.888 23.64 132.835 22.8933 133.981 22.36C135.155 21.8 136.435 21.52 137.821 21.52ZM150.547 32.84C150.547 30.6 150.987 28.6133 151.867 26.88C152.773 25.1467 154 23.8133 155.547 22.88C157.093 21.9467 158.813 21.48 160.707 21.48C162.147 21.48 163.52 21.8 164.827 22.44C166.133 23.0533 167.173 23.88 167.947 24.92V14.4H173.627V44H167.947V40.72C167.253 41.8133 166.28 42.6933 165.027 43.36C163.773 44.0267 162.32 44.36 160.667 44.36C158.8 44.36 157.093 43.88 155.547 42.92C154 41.96 152.773 40.6133 151.867 38.88C150.987 37.12 150.547 35.1067 150.547 32.84ZM167.987 32.92C167.987 31.56 167.72 30.4 167.187 29.44C166.653 28.4533 165.933 27.7067 165.027 27.2C164.12 26.6667 163.147 26.4 162.107 26.4C161.067 26.4 160.107 26.6533 159.227 27.16C158.347 27.6667 157.627 28.4133 157.067 29.4C156.533 30.36 156.267 31.5067 156.267 32.84C156.267 34.1733 156.533 35.3467 157.067 36.36C157.627 37.3467 158.347 38.1067 159.227 38.64C160.133 39.1733 161.093 39.44 162.107 39.44C163.147 39.44 164.12 39.1867 165.027 38.68C165.933 38.1467 166.653 37.4 167.187 36.44C167.72 35.4533 167.987 34.28 167.987 32.92ZM184.696 16.08V44H179.096V16.08H184.696ZM202.509 21.52C205.149 21.52 207.282 22.36 208.909 24.04C210.535 25.6933 211.349 28.0133 211.349 31V44H205.749V31.76C205.749 30 205.309 28.6533 204.429 27.72C203.549 26.76 202.349 26.28 200.829 26.28C199.282 26.28 198.055 26.76 197.149 27.72C196.269 28.6533 195.829 30 195.829 31.76V44H190.229V21.84H195.829V24.6C196.575 23.64 197.522 22.8933 198.669 22.36C199.842 21.8 201.122 21.52 202.509 21.52ZM229.794 44L222.274 34.56V44H216.674V14.4H222.274V31.24L229.714 21.84H236.994L227.234 32.96L237.074 44H229.794ZM255.165 20.6V27.6H264.565V32.04H255.165V39.44H265.765V44H249.565V16.04H265.765V20.6H255.165ZM283.094 44L278.534 37.12L274.494 44H268.494L275.734 32.88L268.414 21.84H274.734L279.254 28.68L283.334 21.84H289.334L282.054 32.88L289.414 44H283.094ZM298.055 25.04C298.775 24.0267 299.762 23.1867 301.015 22.52C302.295 21.8267 303.749 21.48 305.375 21.48C307.269 21.48 308.975 21.9467 310.495 22.88C312.042 23.8133 313.255 25.1467 314.135 26.88C315.042 28.5867 315.495 30.5733 315.495 32.84C315.495 35.1067 315.042 37.12 314.135 38.88C313.255 40.6133 312.042 41.96 310.495 42.92C308.975 43.88 307.269 44.36 305.375 44.36C303.749 44.36 302.309 44.0267 301.055 43.36C299.829 42.6933 298.829 41.8533 298.055 40.84V54.56H292.455V21.84H298.055V25.04ZM309.775 32.84C309.775 31.5067 309.495 30.36 308.935 29.4C308.402 28.4133 307.682 27.6667 306.775 27.16C305.895 26.6533 304.935 26.4 303.895 26.4C302.882 26.4 301.922 26.6667 301.015 27.2C300.135 27.7067 299.415 28.4533 298.855 29.44C298.322 30.4267 298.055 31.5867 298.055 32.92C298.055 34.2533 298.322 35.4133 298.855 36.4C299.415 37.3867 300.135 38.1467 301.015 38.68C301.922 39.1867 302.882 39.44 303.895 39.44C304.935 39.44 305.895 39.1733 306.775 38.64C307.682 38.1067 308.402 37.3467 308.935 36.36C309.495 35.3733 309.775 34.2 309.775 32.84ZM325.165 25.28C325.885 24.1067 326.818 23.1867 327.965 22.52C329.138 21.8533 330.471 21.52 331.965 21.52V27.4H330.485C328.725 27.4 327.391 27.8133 326.485 28.64C325.605 29.4667 325.165 30.9067 325.165 32.96V44H319.565V21.84H325.165V25.28ZM356.337 32.44C356.337 33.24 356.283 33.96 356.177 34.6H339.977C340.11 36.2 340.67 37.4533 341.657 38.36C342.643 39.2667 343.857 39.72 345.297 39.72C347.377 39.72 348.857 38.8267 349.737 37.04H355.777C355.137 39.1733 353.91 40.9333 352.097 42.32C350.283 43.68 348.057 44.36 345.417 44.36C343.283 44.36 341.363 43.8933 339.657 42.96C337.977 42 336.657 40.6533 335.697 38.92C334.763 37.1867 334.297 35.1867 334.297 32.92C334.297 30.6267 334.763 28.6133 335.697 26.88C336.63 25.1467 337.937 23.8133 339.617 22.88C341.297 21.9467 343.23 21.48 345.417 21.48C347.523 21.48 349.403 21.9333 351.057 22.84C352.737 23.7467 354.03 25.04 354.937 26.72C355.87 28.3733 356.337 30.28 356.337 32.44ZM350.537 30.84C350.51 29.4 349.99 28.2533 348.977 27.4C347.963 26.52 346.723 26.08 345.257 26.08C343.87 26.08 342.697 26.5067 341.737 27.36C340.803 28.1867 340.23 29.3467 340.017 30.84H350.537ZM368.904 44.36C367.091 44.36 365.464 44.04 364.024 43.4C362.584 42.7333 361.437 41.84 360.584 40.72C359.757 39.6 359.304 38.36 359.224 37H364.864C364.971 37.8533 365.384 38.56 366.104 39.12C366.851 39.68 367.771 39.96 368.864 39.96C369.931 39.96 370.757 39.7467 371.344 39.32C371.957 38.8933 372.264 38.3467 372.264 37.68C372.264 36.96 371.891 36.4267 371.144 36.08C370.424 35.7067 369.264 35.3067 367.664 34.88C366.011 34.48 364.651 34.0667 363.584 33.64C362.544 33.2133 361.637 32.56 360.864 31.68C360.117 30.8 359.744 29.6133 359.744 28.12C359.744 26.8933 360.091 25.7733 360.784 24.76C361.504 23.7467 362.517 22.9467 363.824 22.36C365.157 21.7733 366.717 21.48 368.504 21.48C371.144 21.48 373.251 22.1467 374.824 23.48C376.397 24.7867 377.264 26.56 377.424 28.8H372.064C371.984 27.92 371.611 27.2267 370.944 26.72C370.304 26.1867 369.437 25.92 368.344 25.92C367.331 25.92 366.544 26.1067 365.984 26.48C365.451 26.8533 365.184 27.3733 365.184 28.04C365.184 28.7867 365.557 29.36 366.304 29.76C367.051 30.1333 368.211 30.52 369.784 30.92C371.384 31.32 372.704 31.7333 373.744 32.16C374.784 32.5867 375.677 33.2533 376.424 34.16C377.197 35.04 377.597 36.2133 377.624 37.68C377.624 38.96 377.264 40.1067 376.544 41.12C375.851 42.1333 374.837 42.9333 373.504 43.52C372.197 44.08 370.664 44.36 368.904 44.36ZM390.701 44.36C388.888 44.36 387.261 44.04 385.821 43.4C384.381 42.7333 383.234 41.84 382.381 40.72C381.554 39.6 381.101 38.36 381.021 37H386.661C386.768 37.8533 387.181 38.56 387.901 39.12C388.648 39.68 389.568 39.96 390.661 39.96C391.728 39.96 392.554 39.7467 393.141 39.32C393.754 38.8933 394.061 38.3467 394.061 37.68C394.061 36.96 393.688 36.4267 392.941 36.08C392.221 35.7067 391.061 35.3067 389.461 34.88C387.808 34.48 386.448 34.0667 385.381 33.64C384.341 33.2133 383.434 32.56 382.661 31.68C381.914 30.8 381.541 29.6133 381.541 28.12C381.541 26.8933 381.888 25.7733 382.581 24.76C383.301 23.7467 384.314 22.9467 385.621 22.36C386.954 21.7733 388.514 21.48 390.301 21.48C392.941 21.48 395.048 22.1467 396.621 23.48C398.194 24.7867 399.061 26.56 399.221 28.8H393.861C393.781 27.92 393.408 27.2267 392.741 26.72C392.101 26.1867 391.234 25.92 390.141 25.92C389.128 25.92 388.341 26.1067 387.781 26.48C387.248 26.8533 386.981 27.3733 386.981 28.04C386.981 28.7867 387.354 29.36 388.101 29.76C388.848 30.1333 390.008 30.52 391.581 30.92C393.181 31.32 394.501 31.7333 395.541 32.16C396.581 32.5867 397.474 33.2533 398.221 34.16C398.994 35.04 399.394 36.2133 399.421 37.68C399.421 38.96 399.061 40.1067 398.341 41.12C397.648 42.1333 396.634 42.9333 395.301 43.52C393.994 44.08 392.461 44.36 390.701 44.36ZM405.138 16.08H411.018L406.698 26.16H402.858L405.138 16.08Z" fill="#1D24CA"/>
</svg>
